# xmcd CD database file
#
# Track frame offsets:
#	150
#	33813
#	61886
#	87331
#	119830
#	162366
#	187445
#	226027
#	259711
#	289880
#
# Disc length: 4223 seconds
#
# Revision: 0
# Processed by: cddbd v1.5.1PL0 Copyright (c) Steve Scherf et al.
# Submitted via: CDex 1.51
#
DISCID=8d107d0a
DTITLE=El Gran Combo - Salsa Classics Revisited Vol 1
DYEAR=2003
DGENRE=Salsa
TTITLE0=Andy Montañez Medley
TTITLE1=La Muerte
TTITLE2=Brujería
TTITLE3=Ojos Chino
TTITLE4=Amame
TTITLE5=Y No Hago Más Na
TTITLE6=Se Me Fue
TTITLE7=El Menú
TTITLE8=La Loma Del Tamarindo
TTITLE9=Que Me Lo Den En Vida
EXTD=YEAR: 2003
EXTT0=
EXTT1=
EXTT2=
EXTT3=
EXTT4=
EXTT5=
EXTT6=
EXTT7=
EXTT8=
EXTT9=
PLAYORDER=
